<?xml version="1.0" encoding="UTF-8" standalone="no"?>
<!DOCTYPE svg PUBLIC "-//W3C//DTD SVG 1.1//EN" "http://www.w3.org/Graphics/SVG/1.1/DTD/svg11.dtd">
<svg width="100%" height="100%" viewBox="0 0 422 339" version="1.1" xmlns="http://www.w3.org/2000/svg" xmlns:xlink="http://www.w3.org/1999/xlink" xml:space="preserve" xmlns:serif="http://www.serif.com/" style="fill-rule:evenodd;clip-rule:evenodd;stroke-linejoin:round;stroke-miterlimit:2;">
    <g transform="matrix(1,0,0,1,-360.864,-2776.22)">
        <g transform="matrix(1.4662,0,0,1.4662,-333.248,2116.24)">
            <g id="path207" transform="matrix(1.3603,0,0,1.3603,506.094,259.66)">
                <path d="M-6.393,309.462C-12.754,308.312 -18.749,303.769 -21.663,297.888C-24.22,292.728 -24.026,297.567 -24.024,238.975C-24.023,183.949 -24.079,186.352 -22.707,182.685C-20.616,177.095 -15.922,172.649 -9.877,170.533L-7.761,169.792L14.516,169.713C35.277,169.64 36.802,169.604 36.928,169.181C37.003,168.932 37.598,166.526 38.249,163.834C38.901,161.141 39.751,158.165 40.138,157.219C43.246,149.62 50.037,143.562 58.049,141.24C61.746,140.169 64.62,140.021 81.801,140.021C98.957,140.021 101.858,140.169 105.527,141.233C112.935,143.379 119.208,148.547 122.506,155.219C123.886,158.011 124.481,159.834 125.603,164.703C126.113,166.917 126.594,168.937 126.673,169.191C126.807,169.627 128.065,169.655 148.163,169.659C170.95,169.664 171.104,169.672 174.635,170.99C180.44,173.157 185.064,178.308 186.904,184.659L187.502,186.72L187.502,239.108C187.502,288.325 187.474,291.597 187.036,293.183C185.8,297.656 184.296,300.261 181.138,303.401C177.669,306.85 174.787,308.405 170.055,309.382C167.741,309.859 164.668,309.876 81.669,309.856C8.746,309.839 -4.636,309.779 -6.393,309.462L-6.393,309.462ZM86.187,289.758C96.062,288.794 105.543,285.011 112.889,279.103C115.686,276.854 119.932,272.458 121.994,269.677C135.154,251.929 135.083,227.85 121.82,209.902C118.611,205.559 113.027,200.391 108.506,197.579C100.121,192.364 91.651,189.941 81.801,189.941C73.349,189.941 66.525,191.559 58.984,195.35C45.507,202.127 35.628,215.234 32.573,230.391C31.758,234.434 31.569,242.089 32.175,246.516C33.499,256.184 37.297,264.714 43.681,272.354C51.149,281.291 62.823,287.8 74.191,289.364C79.528,290.098 81.901,290.176 86.187,289.758ZM79.552,267.914C76.446,267.625 72.38,266.525 69.657,265.239C67.117,264.039 63.698,261.552 61.675,259.433C58.188,255.778 55.97,251.849 54.624,246.94C54.003,244.676 53.925,243.908 53.91,239.901C53.894,235.768 53.952,235.189 54.626,232.758C57.565,222.163 65.92,214.409 76.575,212.388C79.522,211.829 84.532,211.875 87.489,212.489C95.99,214.252 103.007,219.691 106.813,227.466C108.48,230.871 109.171,233.215 109.603,236.929C111.262,251.202 101.513,264.528 87.328,267.377C85.22,267.8 81.263,268.074 79.552,267.914ZM10.152,208.78C13.353,208.101 15.898,206.066 17.327,203.045C18.076,201.463 18.166,201.016 18.166,198.891C18.166,196.778 18.074,196.316 17.35,194.79C16.325,192.631 15.378,191.505 13.667,190.411C8.321,186.991 1.642,188.951 -1.221,194.782C-1.851,196.064 -1.94,196.558 -1.94,198.772C-1.94,201.16 -1.885,201.411 -0.946,203.31C0.096,205.419 1.056,206.446 3.112,207.651C5.282,208.922 7.673,209.306 10.152,208.78Z" style="fill:rgb(255,170,86);fill-rule:nonzero;"/>
            </g>
        </g>
    </g>
</svg>
