<?xml version="1.0" encoding="UTF-8" standalone="no"?>
<!DOCTYPE svg PUBLIC "-//W3C//DTD SVG 1.1//EN" "http://www.w3.org/Graphics/SVG/1.1/DTD/svg11.dtd">
<svg width="100%" height="100%" viewBox="0 0 99 79" version="1.1" xmlns="http://www.w3.org/2000/svg" xmlns:xlink="http://www.w3.org/1999/xlink" xml:space="preserve" xmlns:serif="http://www.serif.com/" style="fill-rule:evenodd;clip-rule:evenodd;stroke-linejoin:round;stroke-miterlimit:2;">
    <g transform="matrix(1,0,0,1,-198.735,-2439.12)">
        <g transform="matrix(3.77953,0,0,3.77953,-2036.65,-1893.53)">
            <g id="path249" transform="matrix(0.25752,0,0,0.25752,441.851,859.923)">
                <path d="M592.133,1192.84C587.031,1191.73 582.672,1187.56 581.359,1182.52C580.749,1180.17 580.749,1125.35 581.359,1123.01C582.688,1117.91 587.043,1113.78 592.255,1112.67C594.938,1112.1 668.571,1112.1 671.253,1112.67C676.495,1113.78 680.809,1117.89 682.135,1123.04C682.505,1124.47 682.554,1127.98 682.554,1152.76C682.554,1177.55 682.505,1181.06 682.135,1182.49C680.809,1187.63 676.495,1191.74 671.253,1192.85C668.66,1193.4 594.666,1193.39 592.133,1192.84L592.133,1192.84ZM596.603,1184.08C596.291,1180.15 599.478,1175.31 604.058,1172.76C614.583,1166.88 629.975,1170.09 634.411,1179.09C635.28,1180.85 635.848,1183.42 635.62,1184.56L635.472,1185.31L652.671,1185.31C666.666,1185.31 670.034,1185.24 670.742,1184.94C671.984,1184.42 673.494,1183.02 674.169,1181.76L674.749,1180.68L674.749,1124.85L674.169,1123.77C673.494,1122.5 671.984,1121.1 670.742,1120.58C669.444,1120.04 594.064,1120.04 592.767,1120.58C591.525,1121.1 590.014,1122.5 589.339,1123.77L588.759,1124.85L588.759,1180.68L589.339,1181.76C589.997,1182.99 591.502,1184.41 592.708,1184.93C593.156,1185.13 594.237,1185.29 595.111,1185.3L596.701,1185.31L596.603,1184.08L596.603,1184.08ZM645.486,1166.49C643.597,1165.39 643.002,1163.02 644.15,1161.16C645.227,1159.42 645.485,1159.38 655.342,1159.38C663.68,1159.38 664.213,1159.41 665.028,1159.9C667.552,1161.44 667.552,1164.98 665.028,1166.52C664.212,1167.02 663.686,1167.05 655.302,1167.04C646.8,1167.04 646.4,1167.02 645.486,1166.49ZM612.241,1161.35C608.465,1160.33 604.694,1157.12 603.1,1153.56C602.23,1151.61 601.863,1149.85 601.859,1147.59C601.854,1143.93 603.08,1140.61 605.392,1138.04C613.17,1129.39 627.363,1133.04 630.036,1144.37C631.774,1151.74 627.118,1159.43 619.716,1161.4C618.008,1161.86 614.019,1161.83 612.241,1161.35L612.241,1161.35ZM618.058,1153.77C618.636,1153.6 619.678,1152.94 620.375,1152.32C624.817,1148.32 622.095,1141.12 616.144,1141.12C612.377,1141.12 609.7,1143.75 609.674,1147.48C609.642,1151.98 613.749,1155.06 618.058,1153.77ZM645.896,1151.07C643.104,1149.85 642.768,1145.85 645.327,1144.29C646.124,1143.8 646.716,1143.77 655.348,1143.77L664.522,1143.77L665.346,1144.46C666.557,1145.48 667.027,1146.55 666.87,1147.94C666.711,1149.36 666.034,1150.35 664.808,1150.98C663.998,1151.39 662.979,1151.44 655.302,1151.43C648.752,1151.42 646.511,1151.34 645.896,1151.07L645.896,1151.07ZM627.856,1184.18C627.659,1182.64 627.197,1181.82 625.884,1180.69C623.296,1178.48 619.913,1177.52 615.35,1177.71C611.718,1177.85 609.497,1178.48 607.241,1180C605.38,1181.26 604.564,1182.4 604.336,1184.06L604.166,1185.31L628,1185.31L627.856,1184.18Z" style="fill:rgb(2,25,108);fill-rule:nonzero;"/>
            </g>
        </g>
    </g>
</svg>
