<?xml version="1.0" encoding="UTF-8" standalone="no"?>
<!DOCTYPE svg PUBLIC "-//W3C//DTD SVG 1.1//EN" "http://www.w3.org/Graphics/SVG/1.1/DTD/svg11.dtd">
<svg width="100%" height="100%" viewBox="0 0 58 72" version="1.1" xmlns="http://www.w3.org/2000/svg" xmlns:xlink="http://www.w3.org/1999/xlink" xml:space="preserve" xmlns:serif="http://www.serif.com/" style="fill-rule:evenodd;clip-rule:evenodd;stroke-linejoin:round;stroke-miterlimit:2;">
    <g transform="matrix(1,0,0,1,-214.998,-2702.48)">
        <g transform="matrix(3.77953,0,0,3.77953,-1935,-201.79)">
            <g id="path263" transform="matrix(0.158723,0,0,0.158723,475.777,651.83)">
                <path d="M600.483,853.337C595.499,852.506 590.574,848.767 588.245,844.046C586.332,840.169 586.352,840.496 586.438,814.971L586.514,792.378L587.261,790.264C589.162,784.884 592.855,781.184 598.072,779.433C599.188,779.058 600.378,778.75 600.716,778.748C601.054,778.746 601.468,778.656 601.635,778.549C601.85,778.412 601.974,775.939 602.055,770.153C602.165,762.384 602.207,761.817 602.849,759.415C605.455,749.667 611.265,742.386 619.921,738.021C624.105,735.912 629.693,734.566 634.271,734.566C643.698,734.566 653.389,739.205 659.257,746.527C662.429,750.484 664.315,754.261 665.694,759.415C666.337,761.821 666.378,762.374 666.486,770.22L666.601,778.49L667.303,778.636C671.101,779.427 672.661,780.044 674.977,781.67C678.309,784.01 680.625,787.384 681.65,791.39C682.135,793.289 682.161,794.521 682.161,816.058C682.161,837.595 682.135,838.827 681.65,840.726C680.001,847.172 675.081,851.823 668.402,853.252C666.983,853.555 661.016,853.615 634.271,853.593C616.445,853.579 601.24,853.464 600.483,853.337L600.483,853.337ZM641.201,832.793C641.42,832.538 641.671,832.128 641.758,831.881C641.845,831.634 641.032,828.062 639.951,823.943C638.869,819.825 637.982,816.383 637.98,816.295C637.978,816.207 638.509,815.797 639.162,815.384C640.569,814.495 641.762,813.077 642.555,811.355C643.434,809.443 643.376,806.121 642.428,804.1C639.731,798.345 632.315,796.988 627.76,801.416C623.364,805.688 624.463,812.906 629.985,816.032C630.255,816.184 629.922,817.854 628.464,823.676C627.438,827.773 626.598,831.344 626.598,831.611C626.598,831.879 626.841,832.358 627.138,832.677C627.665,833.242 627.829,833.256 634.24,833.256C640.163,833.256 640.843,833.211 641.201,832.793ZM650.086,771.145C649.974,762.616 649.792,761.724 647.465,758.244C645.315,755.03 641.944,752.614 638.228,751.625C636.373,751.132 632.169,751.132 630.314,751.625C625.284,752.964 620.755,757.176 619.149,762.008C618.6,763.661 618.545,764.384 618.456,771.145L618.359,778.487L650.184,778.487L650.086,771.145Z" style="fill:rgb(2,25,108);fill-rule:nonzero;"/>
            </g>
        </g>
    </g>
</svg>
