<?xml version="1.0" encoding="UTF-8" standalone="no"?>
<!DOCTYPE svg PUBLIC "-//W3C//DTD SVG 1.1//EN" "http://www.w3.org/Graphics/SVG/1.1/DTD/svg11.dtd">
<svg width="100%" height="100%" viewBox="0 0 849 849" version="1.1" xmlns="http://www.w3.org/2000/svg" xmlns:xlink="http://www.w3.org/1999/xlink" xml:space="preserve" xmlns:serif="http://www.serif.com/" style="fill-rule:evenodd;clip-rule:evenodd;stroke-linejoin:round;stroke-miterlimit:2;">
    <g transform="matrix(1,0,0,1,-140.614,-1375.48)">
        <g transform="matrix(9.97219,0,0,9.97219,-335.706,616.742)">
            <path id="path179" d="M85.712,160.93C69.68,159.067 55.982,148.447 50.497,133.628C44.142,116.461 49.096,97.635 63.043,85.949C77.827,73.561 99.084,72.764 115.039,83.997C118.122,86.168 122.765,90.825 125.015,94.005C137.994,112.34 134.437,137.664 116.886,151.868C108.429,158.712 96.49,162.182 85.712,160.93ZM122.603,140.497C125.274,136.618 127.431,131.596 128.536,126.681C129.106,124.146 129.351,116.142 128.945,113.284C127.7,104.494 123.352,96.116 116.934,90.137C106.726,80.626 92.647,77.305 78.988,81.185C75.866,82.072 69.778,85.145 66.99,87.241C59.07,93.196 53.712,101.771 51.764,111.609C51.111,114.907 51.111,122.315 51.764,125.613C52.375,128.696 53.594,132.477 54.864,135.228C55.965,137.612 58.708,141.922 60.202,143.614L61.136,144.673L61.296,143.35C61.871,138.593 63.005,136.058 65.798,133.288C67.862,131.24 69.976,129.993 72.474,129.349C74.799,128.75 105.508,128.725 107.746,129.32C110.357,130.015 112.514,131.279 114.497,133.275C117.343,136.139 118.857,139.66 118.882,143.471L118.893,145.202L119.948,144.011C120.528,143.356 121.723,141.775 122.603,140.497L122.603,140.497ZM85.933,124.534C82.386,123.677 78.588,121.186 76.382,118.271C72.043,112.537 71.393,105.777 74.562,99.357C77.169,94.075 82.328,90.457 88.19,89.801C95.717,88.959 102.759,92.731 106.03,99.357C109.198,105.777 108.548,112.537 104.209,118.271C101.935,121.276 98.236,123.674 94.525,124.549C92.383,125.054 88.052,125.046 85.933,124.534L85.933,124.534Z" style="fill:rgb(2,25,108);fill-rule:nonzero;"/>
        </g>
    </g>
</svg>
