<?xml version="1.0" encoding="UTF-8" standalone="no"?>
<!DOCTYPE svg PUBLIC "-//W3C//DTD SVG 1.1//EN" "http://www.w3.org/Graphics/SVG/1.1/DTD/svg11.dtd">
<svg width="100%" height="100%" viewBox="0 0 666 84" version="1.1" xmlns="http://www.w3.org/2000/svg" xmlns:xlink="http://www.w3.org/1999/xlink" xml:space="preserve" xmlns:serif="http://www.serif.com/" style="fill-rule:evenodd;clip-rule:evenodd;stroke-linejoin:round;stroke-miterlimit:2;">
    <g transform="matrix(1,0,0,1,-229.975,-1139.58)">
        <g transform="matrix(1,0,0,1,0,1094.42)">
            <g transform="matrix(1,0,0,1,-42.214,0)">
                <g>
                    <g transform="matrix(1.32867,0,0,1.32867,-143.242,29.4533)">
                        <path d="M312.668,72.959L313.485,62.423L314.548,41.845L314.998,27.275C315.025,25.712 315.039,24.148 315.039,22.584C315.039,21.404 315.025,19.47 314.998,16.781C318.621,16.863 321.53,16.904 323.726,16.904C325.839,16.904 328.734,16.842 332.412,16.719C336.09,16.595 339.206,16.534 341.759,16.534C345.437,16.534 348.161,16.767 349.931,17.233C351.701,17.7 353.3,18.434 354.727,19.435C356.154,20.437 357.335,21.61 358.268,22.954C359.201,24.298 359.901,25.828 360.367,27.543C360.834,29.258 361.067,31.007 361.067,32.79C361.067,36.467 360.176,39.828 358.392,42.874C356.609,45.919 354.098,48.197 350.861,49.706C347.623,51.215 343.988,51.969 339.954,51.969C338.473,51.969 336.758,51.805 334.81,51.475C334.59,50.213 334.179,48.334 333.575,45.837C332.971,43.34 332.478,41.488 332.093,40.281C333.301,40.528 334.563,40.651 335.88,40.651C338.651,40.651 340.716,39.986 342.074,38.655C343.432,37.324 344.111,35.699 344.111,33.778C344.111,32.845 343.96,32.015 343.658,31.288C343.356,30.561 342.876,29.964 342.218,29.498C341.559,29.031 340.832,28.73 340.037,28.592C339.241,28.455 338.335,28.387 337.32,28.387C336.332,28.387 335.304,28.414 334.234,28.469L330.776,28.716C330.424,34.011 330.152,39.897 329.962,46.372C329.609,58.17 329.432,65.249 329.432,67.609L329.432,72.959L321.235,72.877C320.082,72.877 317.226,72.904 312.668,72.959Z" style="fill:rgb(255,170,86);fill-rule:nonzero;"/>
                    </g>
                    <g transform="matrix(1.32867,0,0,1.32867,-143.242,29.4533)">
                        <path d="M390.288,29.868C393.69,29.868 396.962,30.39 400.104,31.432C403.246,32.475 405.9,33.977 408.068,35.939C410.235,37.901 411.833,40.192 412.862,42.812C413.891,45.432 414.406,48.251 414.406,51.27C414.406,54.205 413.946,56.997 413.027,59.645C412.108,62.293 410.551,64.776 408.356,67.094C406.161,69.413 403.369,71.148 399.981,72.3C396.592,73.453 393.005,74.029 389.218,74.029C385.734,74.029 382.386,73.521 379.176,72.506C375.966,71.491 373.284,70.009 371.13,68.061C368.976,66.113 367.357,63.781 366.274,61.065C365.19,58.348 364.648,55.495 364.648,52.504C364.648,49.514 365.176,46.66 366.232,43.944C367.289,41.227 368.962,38.785 371.254,36.618C373.545,34.45 376.377,32.784 379.752,31.617C383.127,30.451 386.639,29.868 390.288,29.868ZM390,41.968C388.244,41.968 386.68,42.421 385.308,43.326C383.936,44.232 382.901,45.556 382.201,47.298C381.501,49.04 381.152,50.94 381.152,52.998C381.152,56.016 381.906,58.328 383.415,59.933C384.924,61.538 386.817,62.341 389.095,62.341C390.823,62.341 392.373,61.881 393.745,60.962C395.117,60.043 396.153,58.684 396.853,56.887C397.552,55.09 397.902,53.163 397.902,51.105C397.902,49.404 397.628,47.867 397.079,46.495C396.53,45.124 395.632,44.026 394.383,43.203C393.135,42.38 391.674,41.968 390,41.968Z" style="fill:rgb(255,170,86);fill-rule:nonzero;"/>
                    </g>
                    <g transform="matrix(1.32867,0,0,1.32867,-143.242,29.4533)">
                        <path d="M422.843,25.67C423.007,22.405 423.09,19.826 423.09,17.933C423.09,17.384 423.076,16.643 423.049,15.711C426.368,15.765 429.153,15.793 431.403,15.793C434.504,15.793 437.22,15.765 439.552,15.711C439.47,16.561 439.415,17.275 439.388,17.851L439.141,22.954C439.086,23.722 439.058,24.628 439.058,25.67C436.342,25.615 433.735,25.588 431.239,25.588C428.66,25.588 425.861,25.615 422.843,25.67ZM420.25,72.959C420.632,69.611 420.918,66.854 421.109,64.686C421.3,62.519 421.485,59.748 421.662,56.373C421.84,52.998 421.997,49.267 422.133,45.178C422.269,41.09 422.378,36.344 422.46,30.938C426.03,30.993 428.885,31.021 431.027,31.021C432.976,31.021 435.777,30.993 439.429,30.938C438.957,36.124 438.617,40.679 438.409,44.602C438.202,48.526 438.07,52.683 438.015,57.073C437.904,64.865 437.848,70.16 437.848,72.959C434.586,72.904 431.776,72.877 429.419,72.877C427.089,72.877 424.033,72.904 420.25,72.959Z" style="fill:rgb(255,170,86);fill-rule:nonzero;"/>
                    </g>
                    <g transform="matrix(1.32867,0,0,1.32867,-143.242,29.4533)">
                        <path d="M446.384,72.959C447.173,66.731 447.779,59.851 448.201,52.319C448.623,44.787 448.874,37.661 448.956,30.938C452.253,30.993 455.096,31.021 457.486,31.021C460.261,31.021 462.925,30.993 465.481,30.938L465.07,36.536C465.976,35.52 466.758,34.718 467.416,34.128C468.075,33.538 468.891,32.962 469.865,32.399C470.839,31.837 471.875,31.377 472.972,31.021C474.069,30.664 475.27,30.383 476.573,30.177C477.876,29.971 479.241,29.868 480.668,29.868C482.643,29.868 484.571,30.081 486.45,30.506C488.329,30.931 489.9,31.535 491.162,32.317C492.424,33.099 493.48,34.073 494.331,35.239C495.182,36.405 495.744,37.661 496.018,39.005C496.293,40.349 496.43,41.735 496.43,43.162C496.43,44.204 496.319,46.454 496.097,49.911L495.388,64.81C495.249,67.746 495.18,70.462 495.18,72.959C492.411,72.904 489.821,72.877 487.408,72.877C484.146,72.877 481.172,72.904 478.486,72.959C478.735,70.462 478.998,66.751 479.274,61.826C479.551,56.901 479.689,53.437 479.689,51.434C479.689,48.334 479.092,46.173 477.897,44.952C476.702,43.731 475.198,43.121 473.386,43.121C471.793,43.121 470.289,43.642 468.875,44.685C467.46,45.727 466.369,47.243 465.6,49.232C464.83,51.221 464.288,54.493 463.971,59.048C463.655,63.603 463.442,68.24 463.331,72.959C460.589,72.904 457.915,72.877 455.31,72.877C452.568,72.877 449.593,72.904 446.384,72.959Z" style="fill:rgb(255,170,86);fill-rule:nonzero;"/>
                    </g>
                    <g transform="matrix(1.32867,0,0,1.32867,-143.242,29.4533)">
                        <path d="M534.705,60.859C534.211,63.164 533.786,65.414 533.429,67.609L532.524,72.63C529.808,73.233 527.688,73.617 526.165,73.782C524.643,73.947 523.168,74.029 521.741,74.029C519.409,74.029 517.337,73.83 515.526,73.432C513.716,73.034 512.207,72.307 510.999,71.251C509.792,70.194 508.969,68.98 508.53,67.609C508.091,66.237 507.871,64.782 507.871,63.246C507.871,62.972 507.885,62.485 507.912,61.785C507.939,61.085 508.035,59.528 508.199,57.114L509.098,42.874L502.686,42.874C502.823,40.98 502.946,38.484 503.056,35.383L503.179,31.556L509.999,31.556C510.162,30.294 510.367,27.536 510.612,23.283L517.658,21.843C518.948,21.596 521.695,20.965 525.898,19.95C525.705,23.544 525.568,27.413 525.485,31.556L534.87,31.556C534.65,37.263 534.541,41.035 534.541,42.874L525.072,42.874L524.576,53.163C524.521,54.699 524.493,55.687 524.493,56.126C524.493,57.443 524.638,58.54 524.926,59.418C525.214,60.296 525.722,60.927 526.449,61.312C527.177,61.696 527.979,61.888 528.858,61.888C529.517,61.888 530.203,61.84 530.917,61.744C531.631,61.648 532.894,61.353 534.705,60.859Z" style="fill:rgb(255,170,86);fill-rule:nonzero;"/>
                    </g>
                    <g transform="matrix(1.32867,0,0,1.32867,-143.242,29.4533)">
                        <path d="M539.644,72.177C539.534,70.97 539.425,69.701 539.315,68.37C539.205,67.039 539.027,65.208 538.78,62.876L538.45,59.912C541.106,60.955 543.392,61.73 545.308,62.238C547.224,62.745 548.989,62.999 550.604,62.999C551.946,62.999 553.034,62.876 553.869,62.629C554.704,62.382 555.313,62.025 555.696,61.559C556.079,61.092 556.271,60.612 556.271,60.118C556.271,59.679 556.127,59.247 555.84,58.822C555.553,58.396 554.903,57.813 553.89,57.073C551.647,55.426 549.67,53.931 547.96,52.587C546.25,51.242 544.964,50.049 544.102,49.006C543.24,47.963 542.583,46.838 542.132,45.631C541.681,44.424 541.455,43.175 541.455,41.886C541.455,39.609 542.107,37.482 543.41,35.507C544.713,33.531 546.634,32.098 549.172,31.206C551.71,30.314 554.803,29.868 558.452,29.868C562.266,29.868 567.136,30.362 573.063,31.35L573.721,42.874C570.401,41.557 567.205,40.898 564.132,40.898C561.964,40.898 560.394,41.121 559.42,41.567C558.446,42.013 557.959,42.695 557.959,43.614C557.959,43.916 558.013,44.204 558.123,44.479C558.233,44.753 558.432,45.041 558.72,45.343C559.008,45.645 559.365,45.954 559.79,46.269C560.215,46.585 561.251,47.319 562.897,48.471C564.544,49.623 565.833,50.57 566.766,51.311C568.302,52.518 569.475,53.636 570.285,54.665C571.094,55.694 571.712,56.791 572.137,57.957C572.562,59.123 572.775,60.351 572.775,61.641C572.775,63.589 572.301,65.379 571.355,67.012C570.408,68.644 568.982,70.009 567.075,71.107C565.168,72.204 563.103,72.966 560.881,73.391C558.658,73.816 556.367,74.029 554.008,74.029C552.416,74.029 550.42,73.892 548.019,73.617C545.619,73.343 542.827,72.863 539.644,72.177Z" style="fill:rgb(255,170,86);fill-rule:nonzero;"/>
                    </g>
                    <g transform="matrix(1.32867,0,0,1.32867,-143.242,29.4533)">
                        <path d="M581.335,72.959L582.153,62.423L583.216,41.845L583.665,27.275C583.692,25.712 583.706,24.148 583.706,22.584C583.706,21.404 583.692,19.47 583.665,16.781C587.288,16.863 590.198,16.904 592.393,16.904C594.506,16.904 597.402,16.842 601.08,16.719C604.758,16.595 607.873,16.534 610.426,16.534C614.104,16.534 616.828,16.767 618.598,17.233C620.368,17.7 621.967,18.434 623.395,19.435C624.822,20.437 626.002,21.61 626.935,22.954C627.868,24.298 628.568,25.828 629.035,27.543C629.502,29.258 629.735,31.007 629.735,32.79C629.735,36.467 628.843,39.828 627.06,42.874C625.276,45.919 622.766,48.197 619.528,49.706C616.291,51.215 612.655,51.969 608.622,51.969C607.14,51.969 605.425,51.805 603.477,51.475C603.258,50.213 602.846,48.334 602.243,45.837C601.639,43.34 601.145,41.488 600.761,40.281C601.968,40.528 603.23,40.651 604.547,40.651C607.318,40.651 609.383,39.986 610.741,38.655C612.099,37.324 612.779,35.699 612.779,33.778C612.779,32.845 612.628,32.015 612.326,31.288C612.024,30.561 611.544,29.964 610.885,29.498C610.227,29.031 609.5,28.73 608.704,28.592C607.908,28.455 607.003,28.387 605.988,28.387C605,28.387 603.971,28.414 602.901,28.469L599.444,28.716C599.091,34.011 598.82,39.897 598.629,46.372C598.276,58.17 598.1,65.249 598.1,67.609L598.1,72.959L589.903,72.877C588.75,72.877 585.894,72.904 581.335,72.959Z" style="fill:rgb(2,25,108);fill-rule:nonzero;"/>
                    </g>
                    <g transform="matrix(1.32867,0,0,1.32867,-143.242,29.4533)">
                        <path d="M634.386,72.959L635.121,64.104L636.714,33.338L637.164,16.781C640.982,16.836 643.853,16.863 645.776,16.863C648.275,16.863 651.036,16.836 654.058,16.781L653.119,29.416L651.607,60.53L651.28,72.959C648.341,72.931 645.69,72.918 643.327,72.918L634.386,72.959Z" style="fill:rgb(2,25,108);fill-rule:nonzero;"/>
                    </g>
                    <g transform="matrix(1.32867,0,0,1.32867,-143.242,29.4533)">
                        <path d="M706.624,72.959C703.494,72.904 700.886,72.877 698.799,72.877C696.219,72.877 693.625,72.904 691.016,72.959L690.971,67.32C689.983,68.555 689.146,69.481 688.461,70.098C687.775,70.716 687.027,71.258 686.218,71.724C685.408,72.191 684.503,72.595 683.502,72.938C682.501,73.281 681.348,73.549 680.045,73.741C678.742,73.933 677.419,74.029 676.074,74.029C673.907,74.029 671.857,73.775 669.923,73.267C667.989,72.76 666.288,71.902 664.82,70.695C663.353,69.488 662.351,68.116 661.816,66.58C661.281,65.043 661.014,63.26 661.014,61.229C661.014,60.735 661.055,59.967 661.137,58.925L661.795,49.582C661.987,46.152 662.165,42.352 662.329,38.182C662.439,35.63 662.494,33.216 662.494,30.938C665.897,30.993 668.791,31.021 671.179,31.021C673.593,31.021 676.255,30.993 679.163,30.938L677.886,46.619C677.694,49.006 677.591,50.632 677.577,51.496C677.563,52.36 677.556,52.943 677.556,53.245C677.556,56.126 678.141,58.074 679.31,59.089C680.479,60.104 681.875,60.612 683.498,60.612C684.159,60.612 684.819,60.516 685.479,60.324C686.139,60.132 686.772,59.857 687.377,59.501C687.9,59.171 688.381,58.76 688.822,58.266C689.289,57.745 689.702,57.114 690.06,56.373C690.5,55.467 690.83,54.493 691.05,53.451C691.353,51.997 691.586,50.158 691.751,47.936C691.859,46.317 692.006,43.518 692.194,39.54L692.515,30.938C696.051,30.993 698.956,31.021 701.232,31.021C703.78,31.021 706.343,30.993 708.919,30.938C708.291,37.907 707.799,44.534 707.444,50.817C707.089,57.1 706.815,64.481 706.624,72.959Z" style="fill:rgb(2,25,108);fill-rule:nonzero;"/>
                    </g>
                    <g transform="matrix(1.32867,0,0,1.32867,-143.242,29.4533)">
                        <path d="M715.587,72.177C715.477,70.97 715.367,69.701 715.257,68.37C715.148,67.039 714.969,65.208 714.722,62.876L714.393,59.912C717.049,60.955 719.334,61.73 721.25,62.238C723.167,62.745 724.932,62.999 726.547,62.999C727.889,62.999 728.977,62.876 729.812,62.629C730.647,62.382 731.256,62.025 731.639,61.559C732.022,61.092 732.214,60.612 732.214,60.118C732.214,59.679 732.07,59.247 731.783,58.822C731.496,58.396 730.846,57.813 729.833,57.073C727.59,55.426 725.613,53.931 723.903,52.587C722.193,51.242 720.907,50.049 720.045,49.006C719.183,47.963 718.526,46.838 718.075,45.631C717.623,44.424 717.398,43.175 717.398,41.886C717.398,39.609 718.049,37.482 719.352,35.507C720.656,33.531 722.576,32.098 725.114,31.206C727.652,30.314 730.746,29.868 734.395,29.868C738.209,29.868 743.079,30.362 749.005,31.35L749.664,42.874C746.344,41.557 743.148,40.898 740.075,40.898C737.907,40.898 736.336,41.121 735.362,41.567C734.388,42.013 733.901,42.695 733.901,43.614C733.901,43.916 733.956,44.204 734.066,44.479C734.176,44.753 734.374,45.041 734.663,45.343C734.951,45.645 735.307,45.954 735.733,46.269C736.158,46.585 737.194,47.319 738.84,48.471C740.486,49.623 741.776,50.57 742.709,51.311C744.245,52.518 745.418,53.636 746.227,54.665C747.037,55.694 747.654,56.791 748.079,57.957C748.505,59.123 748.717,60.351 748.717,61.641C748.717,63.589 748.244,65.379 747.298,67.012C746.351,68.644 744.924,70.009 743.017,71.107C741.11,72.204 739.046,72.966 736.823,73.391C734.601,73.816 732.31,74.029 729.95,74.029C728.359,74.029 726.363,73.892 723.962,73.617C721.561,73.343 718.769,72.863 715.587,72.177Z" style="fill:rgb(2,25,108);fill-rule:nonzero;"/>
                    </g>
                </g>
                <g transform="matrix(0.154682,0,0,0.154682,845.296,-4.43339)">
                    <g transform="matrix(1.08661,0,0,1.08661,-569.943,350.162)">
                        <path d="M747.866,410.887C823.136,424.897 901.635,427.685 977.29,416.776C1004.67,412.818 1025.98,390.974 1029.27,363.505C1035.17,314.673 1044.18,239.263 1047.87,208.472C1048.92,199.615 1046.49,190.694 1041.09,183.597C1039.31,181.256 1037.38,178.715 1035.42,176.149C1025.56,163.185 1010.1,155.703 993.807,156.008C966.451,156.519 925.043,157.293 908.471,157.603C907.155,157.627 905.94,156.899 905.341,155.727C904.742,154.555 904.862,153.144 905.652,152.091C916.495,136.841 941.382,91.754 911.569,30.816C883.88,-25.781 852.764,4.052 852.764,4.052C865.004,82.655 821.323,145.909 747.866,187.42L747.866,410.887Z" style="fill:white;"/>
                    </g>
                    <g transform="matrix(1.08661,0,0,1.08661,-569.943,350.162)">
                        <path d="M769.655,438.317C767.944,444.298 765.123,449.788 761.454,454.357C753.461,464.31 742.343,469.348 731.04,469.348L645.406,469.348C634.103,469.348 622.984,464.31 614.992,454.357C608.712,446.538 604.919,436.023 604.919,424.964L604.919,153.986C604.919,142.928 608.712,132.412 614.992,124.593C622.984,114.641 634.103,109.602 645.406,109.602L731.04,109.602C742.343,109.602 753.461,114.641 761.454,124.593C765.82,130.03 768.985,136.77 770.507,144.091C813.984,109.279 838.253,63.141 829.614,7.656C828.436,0.095 831.026,-7.565 836.549,-12.861C836.549,-12.861 857.079,-32.475 884.444,-25.821C898.595,-22.38 916.881,-11.641 932.615,20.519C955.657,67.618 951.078,106.79 941.446,133.553L993.369,132.582C1017.13,132.138 1039.67,143.05 1054.07,161.958L1059.74,169.406C1068.82,181.345 1072.91,196.353 1071.13,211.252C1067.45,242.05 1058.43,317.477 1052.53,366.285C1047.99,404.277 1018.51,434.491 980.638,439.965C911.165,449.983 839.366,448.854 769.655,438.317ZM771.527,391.191C838.318,401.776 907.271,403.2 973.94,393.587C990.829,391.145 1003.98,377.67 1006,360.725L1006.01,360.69C1011.91,311.87 1020.92,236.477 1024.6,205.692C1024.94,202.877 1024.16,200.043 1022.45,197.787L1016.78,190.34C1011.44,183.32 1003.07,179.269 994.245,179.433L908.905,181.028C898.639,181.216 889.158,175.538 884.482,166.397C879.865,157.371 880.725,146.526 886.8,138.17C895.612,125.602 914.238,89.587 890.523,41.112C885.878,31.617 882.043,25.436 878.095,22.191C881.347,96.495 840.123,157.926 771.527,200.621L771.527,391.191ZM654.111,158.794L654.111,420.156L722.334,420.156L722.334,158.794L654.111,158.794Z" style="fill:rgb(2,25,108);"/>
                    </g>
                </g>
                <g transform="matrix(0.154682,0,0,0.154682,845.296,-4.43339)">
                    <g transform="matrix(1.08661,0,0,1.08661,-569.943,350.162)">
                        <path d="M747.866,410.887C823.136,424.897 901.635,427.685 977.29,416.776C1004.67,412.818 1025.98,390.974 1029.27,363.505C1035.17,314.673 1044.18,239.263 1047.87,208.472C1048.92,199.615 1046.49,190.694 1041.09,183.597C1039.31,181.256 1037.38,178.715 1035.42,176.149C1025.56,163.185 1010.1,155.703 993.807,156.008C966.451,156.519 925.043,157.293 908.471,157.603C907.155,157.627 905.94,156.899 905.341,155.727C904.742,154.555 904.862,153.144 905.652,152.091C916.495,136.841 941.382,91.754 911.569,30.816C883.88,-25.781 852.764,4.052 852.764,4.052C865.004,82.655 821.323,145.909 747.866,187.42L747.866,410.887Z" style="fill:none;"/>
                    </g>
                    <g transform="matrix(1.08661,0,0,1.08661,-569.943,350.162)">
                        <path d="M769.655,438.317C767.944,444.298 765.123,449.788 761.454,454.357C753.461,464.31 742.343,469.348 731.04,469.348L645.406,469.348C634.103,469.348 622.984,464.31 614.992,454.357C608.712,446.538 604.919,436.023 604.919,424.964L604.919,153.986C604.919,142.928 608.712,132.412 614.992,124.593C622.984,114.641 634.103,109.602 645.406,109.602L731.04,109.602C742.343,109.602 753.461,114.641 761.454,124.593C765.82,130.03 768.985,136.77 770.507,144.091C813.984,109.279 838.253,63.141 829.614,7.656C828.436,0.095 831.026,-7.565 836.549,-12.861C836.549,-12.861 857.079,-32.475 884.444,-25.821C898.595,-22.38 916.881,-11.641 932.615,20.519C955.657,67.618 951.078,106.79 941.446,133.553L993.369,132.582C1017.13,132.138 1039.67,143.05 1054.07,161.958L1059.74,169.406C1068.82,181.345 1072.91,196.353 1071.13,211.252C1067.45,242.05 1058.43,317.477 1052.53,366.285C1047.99,404.277 1018.51,434.491 980.638,439.965C911.165,449.983 839.366,448.854 769.655,438.317ZM771.527,391.191C838.318,401.776 907.271,403.2 973.94,393.587C990.829,391.145 1003.98,377.67 1006,360.725L1006.01,360.69C1011.91,311.87 1020.92,236.477 1024.6,205.692C1024.94,202.877 1024.16,200.043 1022.45,197.787L1016.78,190.34C1011.44,183.32 1003.07,179.269 994.245,179.433L908.905,181.028C898.639,181.216 889.158,175.538 884.482,166.397C879.865,157.371 880.725,146.526 886.8,138.17C895.612,125.602 914.238,89.587 890.523,41.112C885.878,31.617 882.043,25.436 878.095,22.191C881.347,96.495 840.123,157.926 771.527,200.621L771.527,391.191ZM654.111,158.794L654.111,420.156L722.334,420.156L722.334,158.794L654.111,158.794Z" style="fill:none;"/>
                    </g>
                </g>
            </g>
        </g>
    </g>
</svg>
