<?xml version="1.0" encoding="UTF-8" standalone="no"?>
<!DOCTYPE svg PUBLIC "-//W3C//DTD SVG 1.1//EN" "http://www.w3.org/Graphics/SVG/1.1/DTD/svg11.dtd">
<svg width="100%" height="100%" viewBox="0 0 456 414" version="1.1" xmlns="http://www.w3.org/2000/svg" xmlns:xlink="http://www.w3.org/1999/xlink" xml:space="preserve" xmlns:serif="http://www.serif.com/" style="fill-rule:evenodd;clip-rule:evenodd;stroke-linejoin:round;stroke-miterlimit:2;">
    <g transform="matrix(1,0,0,1,-2094.22,-4260.97)">
        <g transform="matrix(3.77953,0,0,3.77953,90.5546,-142.934)">
            <g id="path339" transform="matrix(1,0,0,1,0,11.637)">
                <path d="M570.623,1262.61C566.571,1261.21 564.466,1256.79 565.858,1252.6C566.431,1250.88 567.72,1249.39 569.496,1248.4C570.756,1247.71 571.164,1247.62 573.162,1247.62C575.162,1247.62 575.569,1247.71 576.831,1248.41C579.471,1249.87 580.878,1252.3 580.876,1255.39C580.872,1260.67 575.648,1264.35 570.623,1262.61ZM622.11,1262.87C619.627,1262.05 617.44,1260.03 616.706,1257.88C614.155,1250.39 623.217,1244.2 629.12,1249.39C630.974,1251.03 631.754,1252.73 631.755,1255.16C631.757,1258.39 630.286,1260.84 627.518,1262.19C625.991,1262.94 623.335,1263.27 622.11,1262.87ZM561.872,1239C560.275,1238.38 558.603,1236.86 557.802,1235.29C557.346,1234.39 556.186,1227.16 551.829,1198.04C548.856,1178.16 546.371,1161.75 546.307,1161.56C546.219,1161.31 544.641,1161.23 539.631,1161.23C532.063,1161.23 531.682,1161.14 530.616,1159.1C529.903,1157.73 529.988,1156.33 530.859,1155.11C531.926,1153.61 532.219,1153.56 540.539,1153.56C548.031,1153.56 548.182,1153.58 549.527,1154.2C551.316,1155.04 552.906,1156.7 553.538,1158.41C553.817,1159.16 554.199,1161 554.386,1162.49L554.727,1165.2L599.351,1165.2C649.565,1165.2 645.591,1165.04 648.054,1167.25C649.861,1168.87 650.679,1170.6 650.683,1172.81C650.684,1173.72 649.2,1183.45 647.385,1194.43C643.743,1216.47 643.848,1216.05 641.555,1218.07C639.229,1220.11 642.286,1219.97 600.5,1219.97C567.508,1219.97 563.108,1220.02 563.108,1220.37C563.108,1221.02 564.73,1231.45 564.866,1231.67C564.935,1231.79 582.086,1231.88 602.979,1231.88C640.352,1231.88 640.979,1231.89 641.812,1232.4C642.277,1232.69 642.874,1233.32 643.137,1233.81C643.801,1235.05 643.593,1237.19 642.72,1238.13C641.307,1239.64 643.914,1239.55 601.949,1239.54C563.968,1239.52 563.215,1239.51 561.872,1239ZM636.532,1211.44C636.618,1210.96 638.093,1202.15 639.807,1191.86L642.925,1173.14L555.922,1173.14L556.073,1173.87C556.156,1174.27 557.478,1182.81 559.01,1192.85C560.542,1202.89 561.855,1211.38 561.928,1211.7L562.06,1212.3L636.374,1212.3L636.532,1211.44Z" style="fill:rgb(2,25,108);fill-rule:nonzero;"/>
            </g>
        </g>
    </g>
</svg>
